<svg width="16" height="13" viewBox="0 0 16 13" fill="none" xmlns="http://www.w3.org/2000/svg">
<path fill-rule="evenodd" clip-rule="evenodd" d="M1.31 1.64541C0.968725 2.23481 0.857417 2.92957 0.997479 3.59607C1.13754 4.26258 1.51908 4.85378 2.06872 5.25595C2.61836 5.65813 3.29729 5.84289 3.97494 5.7747C4.65258 5.70651 5.28109 5.39019 5.73958 4.88657L6.43592 5.28876C6.45564 5.36131 6.55185 5.38024 6.60153 5.32267C6.72035 5.18335 6.85178 5.05612 6.99583 4.94099C7.22137 4.75961 7.23241 4.38187 6.98164 4.23755L6.33104 3.86139C6.5345 3.21349 6.49204 2.51334 6.21178 1.89478C5.93152 1.27622 5.43312 0.782641 4.81187 0.508413C4.19061 0.234184 3.49007 0.198541 2.84419 0.408296C2.1983 0.618051 1.65238 1.05849 1.31078 1.64541M2.91165 4.39133C2.73083 4.28852 2.57213 4.15097 2.44469 3.98658C2.31725 3.82219 2.22358 3.63422 2.16909 3.43348C2.11459 3.23274 2.10033 3.02321 2.12714 2.81694C2.15395 2.61068 2.2213 2.41175 2.3253 2.23162C2.42931 2.05148 2.56791 1.8937 2.73314 1.76735C2.89837 1.641 3.08696 1.54859 3.28806 1.49542C3.48915 1.44225 3.69877 1.42939 3.90486 1.45757C4.11094 1.48575 4.30942 1.55441 4.48886 1.65961C4.84816 1.87024 5.10956 2.21445 5.21601 2.6171C5.32247 3.01975 5.26534 3.44817 5.05709 3.80886C4.84884 4.16955 4.50638 4.43322 4.10444 4.54235C3.7025 4.65147 3.27371 4.59718 2.91165 4.39133ZM8.00288 5.25091C7.6985 5.37922 7.42745 5.57536 7.21042 5.82438C6.99339 6.07339 6.8361 6.36869 6.75058 6.68774L6.43671 7.85961L5.73958 8.2618C5.28025 7.76106 4.65238 7.44729 3.97616 7.38056C3.29993 7.31383 2.62285 7.49882 2.0745 7.90013C1.52615 8.30143 1.14505 8.89086 1.00414 9.5556C0.86323 10.2203 0.972411 10.9137 1.31078 11.503C1.65092 12.0926 2.19695 12.5357 2.84395 12.7473C3.49095 12.9588 4.1933 12.9237 4.81605 12.6489C5.4388 12.3741 5.93802 11.8788 6.2178 11.2582C6.49759 10.6377 6.5382 9.93565 6.33183 9.28698L14.7541 4.42445C14.8552 4.3658 14.9366 4.27854 14.9881 4.17367C15.0396 4.0688 15.0589 3.95102 15.0435 3.8352C15.0282 3.71937 14.9789 3.61069 14.9018 3.52286C14.8248 3.43504 14.7234 3.372 14.6106 3.3417L14.0562 3.19265C13.5905 3.06808 13.0966 3.10221 12.6525 3.28965L8.00288 5.25091ZM2.33439 10.9115C2.2292 10.7321 2.16053 10.5336 2.13236 10.3275C2.10418 10.1214 2.11704 9.9118 2.17021 9.71071C2.22337 9.50961 2.31579 9.32102 2.44214 9.15579C2.56849 8.99056 2.72627 8.85195 2.9064 8.74795C3.08654 8.64395 3.28546 8.5766 3.49173 8.54979C3.698 8.52298 3.90753 8.53724 4.10827 8.59173C4.309 8.64623 4.49698 8.7399 4.66136 8.86734C4.82575 8.99478 4.96331 9.15348 5.06612 9.3343C5.27197 9.69636 5.32626 10.1251 5.21713 10.5271C5.10801 10.929 4.84433 11.2715 4.48365 11.4797C4.12296 11.688 3.69454 11.7451 3.29189 11.6387C2.88923 11.5322 2.54503 11.2708 2.33439 10.9115Z" fill="white"/>
</svg>
