<svg width="15" height="10" viewBox="0 0 15 10" fill="none" xmlns="http://www.w3.org/2000/svg">
<path d="M12.9189 2.74308C12.5286 2.74308 12.2092 2.4237 12.2092 2.03334C12.2092 1.64298 12.5286 1.3236 12.9189 1.3236V0.613853H1.56304V1.3236C1.9534 1.3236 2.27279 1.64298 2.27279 2.03334C2.27279 2.4237 1.9534 2.74308 1.56304 2.74308H0.143555V7.71129H1.56304C1.9534 7.71129 2.27279 8.03067 2.27279 8.42103C2.27279 8.81139 1.9534 9.13078 1.56304 9.13078V9.84052H12.9189V9.13078C12.5286 9.13078 12.2092 8.81139 12.2092 8.42103C12.2092 8.03067 12.5286 7.71129 12.9189 7.71129H14.3384V2.74308H12.9189ZM12.9189 5.58206H12.2092V6.2918H10.7897V5.58206H8.24173C8.09268 5.99371 7.70232 6.2918 7.24099 6.2918C6.77966 6.2918 6.3893 5.99371 6.24025 5.58206H3.69227V6.2918H2.27279V5.58206H1.56304V4.87231H2.27279V4.16257H3.69227V4.87231H6.24025C6.3893 4.46066 6.77966 4.16257 7.24099 4.16257C7.70232 4.16257 8.09268 4.46066 8.24173 4.87231H10.7897V4.16257H12.2092V4.87231H12.9189V5.58206Z" fill="white"/>
</svg>
